<?xml version="1.0" encoding="UTF-8" standalone="no"?>
<svg
   xmlns:dc="http://purl.org/dc/elements/1.1/"
   xmlns:cc="http://creativecommons.org/ns#"
   xmlns:rdf="http://www.w3.org/1999/02/22-rdf-syntax-ns#"
   xmlns:svg="http://www.w3.org/2000/svg"
   xmlns="http://www.w3.org/2000/svg"
   id="svg2"
   version="1.1"
   xml:space="preserve"
   width="541.54492"
   height="218.29649"
   viewBox="0 0 541.54493 218.29649"><metadata
     id="metadata8"><rdf:RDF><cc:Work
         rdf:about=""><dc:format>image/svg+xml</dc:format><dc:type
           rdf:resource="http://purl.org/dc/dcmitype/StillImage" /><dc:title></dc:title></cc:Work></rdf:RDF></metadata><defs
     id="defs6" /><path
     d="m 96.13077,106.4505 c 0,-42.598 20.7895,-79.463 82.64787,-79.463 0,42.69 -28.08125,79.463 -82.64787,79.463"
     style="fill:#47a138;fill-opacity:1;fill-rule:nonzero;stroke:none;stroke-width:0.125"
     id="path14" /><path
     d="m 195.24114,218.29625 c 11.58625,0 20.49125,-1.64892 29.6375,-5.01368 0,-33.71244 -20.11125,-57.80269 -55.635,-75.16107 -27.185,-13.63337 -60.64462,-20.691 -91.159745,-20.691 C 91.47352,77.24125 81.71377,27.37375 68.737645,0 54.36177,28.6775 45.38852,77.8425 59.19227,117.84213 c -27.106875,1.97662 -48.603025,13.78425 -57.6977505,29.354 -0.68700749,1.1875 -2.06298499,3.71875 -1.23974249,4.15137 0.64795,0.34762 1.69677999,-0.71237 2.34472999,-1.30375 9.794426,-9.06737 22.763638,-13.48475 35.215388,-13.48475 28.77725,0 49.09275,23.88075 63.446745,38.2275 30.8495,30.84613 61.002,43.57371 93.9795,43.50975"
     style="fill:#47a138;fill-opacity:1;fill-rule:nonzero;stroke:none;stroke-width:0.125"
     id="path16" /><path
     d="m 314.11114,59.97375 -15,7.6875 c -0.74875,0.375 -1.5,0.9375 -2.25,0.9375 -0.5625,0 -1.125,-0.375 -1.5,-1.3125 C 291.98739,59.225 287.11239,56.225 282.04989,56.225 h -12.375 c -7.31125,0 -13.49875,6.18625 -13.49875,13.49875 V 125.221 c 0,7.3125 6.1875,13.5 13.49875,13.5 h 9.1875 c 7.5,0 13.31125,-6 13.31125,-13.5 v -8.8115 c 0,-1.3125 -0.5625,-1.875 -1.875,-1.875 h -17.62375 c -1.3125,0 -1.875,-0.563 -1.875,-1.875 v -15.937 c 0,-1.3125 0.5625,-1.875 1.875,-1.875 h 39.18625 c 1.3125,0 1.87375,0.5625 1.87375,1.875 v 28.4985 c 0,19.49913 -13.68625,33.18663 -34.8725,33.18663 h -9.1875 c -21.37375,0 -34.87375,-13.6875 -34.87375,-33.18663 V 69.72375 c 0,-19.49875 13.5,-33.18625 34.87375,-33.18625 h 12.375 c 15.56125,0 23.99875,6.375 29.62375,15.1875 1.6875,2.8125 3.5625,5.81125 3.5625,6.93625 0,0.56375 -0.375,0.9375 -1.125,1.3125"
     style="fill:#ffffff;fill-opacity:1;fill-rule:nonzero;stroke:none;stroke-width:0.125"
     id="path18" /><path
     d="m 387.23489,119.784 c 0,-7.4995 -6,-13.312 -13.5,-13.312 h -20.62375 c -1.31125,0 -1.875,0.563 -1.875,1.875 v 26.624 c 0,1.3125 0.56375,1.875 1.875,1.875 h 20.62375 c 7.3125,0 13.5,-5.8125 13.5,-13.4995 z m 0,-48.18525 c 0,-7.3125 -6.1875,-13.49875 -13.5,-13.49875 h -20.62375 c -1.31125,0 -1.875,0.56125 -1.875,1.87375 V 84.91 c 0,1.3125 0.56375,1.875 1.875,1.875 h 20.62375 c 7.3125,0 13.5,-6.1875 13.5,-13.49875 z m -13.5,84.93388 h -42.185 c -1.31125,0 -1.875,-0.5625 -1.875,-1.875 V 40.2875 c 0,-1.3125 0.56375,-1.875 1.875,-1.875 h 42.185 c 21.375,0 34.875,13.6875 34.875,34.87375 v 1.875 c 0,6.9375 -4.5,14.99875 -9.9375,20.24875 -0.56375,0.375 -0.75,0.9375 -0.75,1.3125 0,0.3755 0.18625,0.9375 0.75,1.312 5.4375,5.2505 9.9375,14.25 9.9375,21.1875 v 2.8115 c 0,21.1875 -13.5,34.49913 -34.875,34.49913"
     style="fill:#ffffff;fill-opacity:1;fill-rule:nonzero;stroke:none;stroke-width:0.125"
     id="path20" /><path
     d="m 446.11114,156.53263 h -17.81125 c -1.3125,0 -1.875,-0.5625 -1.875,-1.875 V 40.2875 c 0,-1.3125 0.5625,-1.875 1.875,-1.875 h 17.81125 c 1.3125,0 1.875,0.5625 1.875,1.875 v 114.37013 c 0,1.3125 -0.5625,1.875 -1.875,1.875"
     style="fill:#ffffff;fill-opacity:1;fill-rule:nonzero;stroke:none;stroke-width:0.125"
     id="path22" /><path
     d="m 539.66989,58.1 h -44.6225 c -1.3125,0 -1.875,0.56125 -1.875,1.87375 V 84.91 c 0,1.3125 0.5625,1.875 1.875,1.875 h 36.56125 c 1.3125,0 1.875,0.5625 1.875,1.875 v 15.937 c 0,1.3125 -0.5625,1.875 -1.875,1.875 h -36.56125 c -1.3125,0 -1.875,0.563 -1.875,1.875 v 46.31063 c 0,1.3125 -0.5625,1.875 -1.875,1.875 h -17.81125 c -1.3125,0 -1.875,-0.5625 -1.875,-1.875 V 40.2875 c 0,-1.3125 0.5625,-1.875 1.875,-1.875 h 66.18375 c 1.3125,0 1.875,0.5625 1.875,1.875 V 56.225 c 0,1.31125 -0.5625,1.875 -1.875,1.875"
     style="fill:#ffffff;fill-opacity:1;fill-rule:nonzero;stroke:none;stroke-width:0.125"
     id="path24" /></svg>