<?xml version="1.0" encoding="UTF-8" standalone="no"?>
<svg
   xmlns:dc="http://purl.org/dc/elements/1.1/"
   xmlns:cc="http://creativecommons.org/ns#"
   xmlns:rdf="http://www.w3.org/1999/02/22-rdf-syntax-ns#"
   xmlns:svg="http://www.w3.org/2000/svg"
   xmlns="http://www.w3.org/2000/svg"
   xmlns:sodipodi="http://sodipodi.sourceforge.net/DTD/sodipodi-0.dtd"
   xmlns:inkscape="http://www.inkscape.org/namespaces/inkscape"
   viewBox="0 0 224.87865 224.87864"
   height="224.87865"
   width="224.87865"
   xml:space="preserve"
   version="1.1"
   id="svg2"
   sodipodi:docname="logo-only.svg"
   inkscape:version="0.92.2 (5c3e80d, 2017-08-06)"
   inkscape:export-filename="/home/mblissett/Workspace/ipt/logo-only.png"
   inkscape:export-xdpi="299.92236"
   inkscape:export-ydpi="299.92236"><sodipodi:namedview
     pagecolor="#ffffff"
     bordercolor="#666666"
     borderopacity="1"
     objecttolerance="10"
     gridtolerance="10"
     guidetolerance="10"
     inkscape:pageopacity="0"
     inkscape:pageshadow="2"
     inkscape:window-width="1530"
     inkscape:window-height="904"
     id="namedview51"
     showgrid="false"
     fit-margin-top="0"
     fit-margin-left="0"
     fit-margin-right="0"
     fit-margin-bottom="0"
     inkscape:zoom="1.4922632"
     inkscape:cx="231.67966"
     inkscape:cy="125.27121"
     inkscape:window-x="669"
     inkscape:window-y="696"
     inkscape:window-maximized="0"
     inkscape:current-layer="svg2" /><metadata
     id="metadata8"><rdf:RDF><cc:Work
         rdf:about=""><dc:format>image/svg+xml</dc:format><dc:type
           rdf:resource="http://purl.org/dc/dcmitype/StillImage" /><dc:title></dc:title></cc:Work></rdf:RDF></metadata><defs
     id="defs6" /><path
     id="path14"
     style="fill:#47a138;fill-opacity:1;fill-rule:nonzero;stroke:none;stroke-width:0.125"
     d="m 96.13077,113.03266 c 0,-42.598004 20.7895,-79.463004 82.64787,-79.463004 0,42.69 -28.08125,79.463004 -82.64787,79.463004"
     inkscape:connector-curvature="0" /><path
     id="path16"
     style="fill:#47a138;fill-opacity:1;fill-rule:nonzero;stroke:none;stroke-width:0.125"
     d="m 195.24114,221.58733 c 11.58625,0 20.49125,-1.64892 29.6375,-5.01368 0,-33.71244 -20.11125,-57.80269 -55.635,-75.16107 -27.185,-13.63337 -60.64462,-20.691 -91.159742,-20.691 C 91.473523,80.532326 81.713773,30.664826 68.737648,3.2910768 54.361773,31.968576 45.388523,81.133576 59.192273,121.13321 c -27.106875,1.97662 -48.603025,13.78425 -57.6977501,29.354 -0.68700747,1.1875 -2.06298497,3.71875 -1.23974247,4.15137 0.64795,0.34762 1.69677997,-0.71237 2.34472997,-1.30375 9.7944256,-9.06737 22.7636376,-13.48475 35.2153876,-13.48475 28.77725,0 49.09275,23.88075 63.446742,38.2275 30.8495,30.84613 61.002,43.57371 93.9795,43.50975"
     inkscape:connector-curvature="0" /></svg>