<?xml version="1.0" encoding="UTF-8" standalone="no"?>
<svg
   xmlns:dc="http://purl.org/dc/elements/1.1/"
   xmlns:cc="http://creativecommons.org/ns#"
   xmlns:rdf="http://www.w3.org/1999/02/22-rdf-syntax-ns#"
   xmlns:svg="http://www.w3.org/2000/svg"
   xmlns="http://www.w3.org/2000/svg"
   viewBox="0 0 1061.475 218.3"
   height="218.3"
   width="1061.475"
   xml:space="preserve"
   version="1.1"
   id="svg2"><metadata
     id="metadata8"><rdf:RDF><cc:Work
         rdf:about=""><dc:format>image/svg+xml</dc:format><dc:type
           rdf:resource="http://purl.org/dc/dcmitype/StillImage" /><dc:title></dc:title></cc:Work></rdf:RDF></metadata><defs
     id="defs6" /><g
     transform="matrix(1.25,0,0,-1.25,0,218.3)"
     id="g10"><g
       transform="scale(0.1,0.1)"
       id="g12"><path
         id="path14"
         style="fill:#47a138;fill-opacity:1;fill-rule:nonzero;stroke:none"
         d="m 769.047,894.766 c 0,340.784 166.316,635.704 661.183,635.704 0,-341.52 -224.65,-635.704 -661.183,-635.704" /><path
         id="path16"
         style="fill:#47a138;fill-opacity:1;fill-rule:nonzero;stroke:none"
         d="m 1561.93,0 c 92.69,0 163.93,13.1914 237.1,40.1094 0,269.6996 -160.89,462.4216 -445.08,601.2886 C 1136.47,750.465 868.793,806.926 624.672,806.926 731.789,1128.44 653.711,1527.38 549.902,1746.37 434.895,1516.95 363.109,1123.63 473.539,803.633 256.684,787.82 84.7148,693.359 11.957,568.801 c -5.49606,-9.5 -16.50388,-29.75 -9.91794,-33.211 5.1836,-2.781 13.57424,5.699 18.75784,10.43 78.3554,72.539 182.1091,107.878 281.7231,107.878 230.218,0 392.742,-191.046 507.574,-305.82 C 1056.89,101.309 1298.11,-0.511719 1561.93,0" /><path
         id="path18"
         style="fill:#231f20;fill-opacity:1;fill-rule:nonzero;stroke:none"
         d="m 2512.89,1266.58 -120,-61.5 c -5.99,-3 -12,-7.5 -18,-7.5 -4.5,0 -9,3 -12,10.5 -26.99,64.49 -65.99,88.49 -106.49,88.49 l -99,0 c -58.49,0 -107.99,-49.49 -107.99,-107.99 l 0,-443.978 c 0,-58.5 49.5,-108 107.99,-108 l 73.5,0 c 60,0 106.49,48 106.49,108 l 0,70.492 c 0,10.5 -4.5,15 -15,15 l -140.99,0 c -10.5,0 -15,4.504 -15,15 l 0,127.496 c 0,10.5 4.5,15 15,15 l 313.49,0 c 10.5,0 14.99,-4.5 14.99,-15 l 0,-227.988 c 0,-155.993 -109.49,-265.493 -278.98,-265.493 l -73.5,0 c -170.99,0 -278.99,109.5 -278.99,265.493 l 0,443.978 c 0,155.99 108,265.49 278.99,265.49 l 99,0 c 124.49,0 191.99,-51 236.99,-121.5 13.5,-22.5 28.5,-46.49 28.5,-55.49 0,-4.51 -3,-7.5 -9,-10.5" /><path
         id="path20"
         style="fill:#231f20;fill-opacity:1;fill-rule:nonzero;stroke:none"
         d="m 3097.88,788.098 c 0,59.996 -48,106.496 -108,106.496 l -164.99,0 c -10.49,0 -15,-4.504 -15,-15 l 0,-212.992 c 0,-10.5 4.51,-15 15,-15 l 164.99,0 c 58.5,0 108,46.5 108,107.996 l 0,28.5 z m 0,385.482 c 0,58.5 -49.5,107.99 -108,107.99 l -164.99,0 c -10.49,0 -15,-4.49 -15,-14.99 l 0,-199.49 c 0,-10.5 4.51,-15 15,-15 l 164.99,0 c 58.5,0 108,49.5 108,107.99 l 0,13.5 z m -108,-679.471 -337.48,0 c -10.49,0 -15,4.5 -15,15 l 0,914.961 c 0,10.5 4.51,15 15,15 l 337.48,0 c 171,0 279,-109.5 279,-278.99 l 0,-15 c 0,-55.5 -36,-119.99 -79.5,-161.99 -4.51,-3 -6,-7.5 -6,-10.5 0,-3.004 1.49,-7.5 6,-10.496 43.5,-42.004 79.5,-114 79.5,-169.5 l 0,-22.492 c 0,-169.5 -108,-275.993 -279,-275.993" /><path
         id="path22"
         style="fill:#231f20;fill-opacity:1;fill-rule:nonzero;stroke:none"
         d="m 3568.89,494.109 -142.49,0 c -10.5,0 -15,4.5 -15,15 l 0,914.961 c 0,10.5 4.5,15 15,15 l 142.49,0 c 10.5,0 15,-4.5 15,-15 l 0,-914.961 c 0,-10.5 -4.5,-15 -15,-15" /><path
         id="path24"
         style="fill:#231f20;fill-opacity:1;fill-rule:nonzero;stroke:none"
         d="m 4317.36,1281.57 -356.98,0 c -10.5,0 -15,-4.49 -15,-14.99 l 0,-199.49 c 0,-10.5 4.5,-15 15,-15 l 292.49,0 c 10.5,0 15,-4.5 15,-15 l 0,-127.496 c 0,-10.5 -4.5,-15 -15,-15 l -292.49,0 c -10.5,0 -15,-4.504 -15,-15 l 0,-370.485 c 0,-10.5 -4.5,-15 -15,-15 l -142.49,0 c -10.5,0 -15,4.5 -15,15 l 0,914.961 c 0,10.5 4.5,15 15,15 l 529.47,0 c 10.5,0 15,-4.5 15,-15 l 0,-127.5 c 0,-10.49 -4.5,-15 -15,-15" /><path
         id="path26"
         style="fill:none;stroke:#231f20;stroke-width:10;stroke-linecap:butt;stroke-linejoin:miter;stroke-miterlimit:10;stroke-dasharray:none;stroke-opacity:1"
         d="m 4618.44,1606.55 0,-1253.331" /><path
         id="path28"
         style="fill:#231f20;fill-opacity:1;fill-rule:nonzero;stroke:none"
         d="m 5041.7,1111.46 -15.81,0 c -55.08,0 -90.26,34.67 -90.26,85.16 l 0,161.14 c 0,49.98 35.18,85.16 90.26,85.16 l 24.99,0 c 28.05,0 47.42,-8.16 61.19,-19.88 8.67,-7.15 14.79,-15.82 19.89,-24.99 1.53,-3.06 0.51,-5.61 -2.56,-7.14 l -27.02,-13.26 c -2.55,-1.53 -4.59,-0.51 -6.12,2.04 -10.7,18.36 -28.55,28.05 -45.38,28.05 l -24.99,0 c -27.54,0 -49.97,-21.93 -49.97,-49.98 l 0,-161.14 c 0,-27.03 21.92,-49.98 49.97,-49.98 l 15.81,0 c 27.02,0 49.97,22.44 49.97,49.98 l 0,37.22 c 0,3.57 -1.52,5.1 -5.1,5.1 l -52.01,0 c -3.57,0 -5.1,1.53 -5.1,5.1 l 0,24.99 c 0,3.57 1.53,5.1 5.1,5.1 l 92.3,0 c 3.57,0 5.1,-1.53 5.1,-5.1 l 0,-72.41 c 0,-49.98 -35.19,-85.16 -90.26,-85.16" /><path
         id="path30"
         style="fill:#231f20;fill-opacity:1;fill-rule:nonzero;stroke:none"
         d="m 5230.92,1116.55 -30.09,0 c -3.57,0 -5.11,1.53 -5.11,5.1 l 0,311.07 c 0,3.57 1.54,5.1 5.11,5.1 l 30.09,0 c 3.56,0 5.1,-1.53 5.1,-5.1 l 0,-311.07 c 0,-3.57 -1.54,-5.1 -5.1,-5.1" /><path
         id="path32"
         style="fill:#231f20;fill-opacity:1;fill-rule:nonzero;stroke:none"
         d="m 5435.92,1266.99 c 0,26.01 -20.91,47.43 -49.97,47.43 -31.62,0 -49.98,-22.44 -49.98,-49.98 l 0,-70.88 c 0,-26.01 20.91,-47.43 49.98,-47.43 31.61,0 49.97,22.44 49.97,49.98 l 0,70.88 z m -49.97,-155.53 c -54.05,0 -90.27,35.69 -90.27,84.65 l 0,68.33 c 0,48.44 35.19,84.65 90.27,84.65 54.05,0 90.26,-35.7 90.26,-84.65 l 0,-68.33 c 0,-48.45 -35.18,-84.65 -90.26,-84.65" /><path
         id="path34"
         style="fill:#231f20;fill-opacity:1;fill-rule:nonzero;stroke:none"
         d="m 5676.64,1259.34 c 0,27.03 -22.95,49.97 -50.49,49.97 -27.54,0 -49.97,-22.43 -49.97,-49.97 l 0,-57.63 c 0,-27.02 22.43,-49.97 49.97,-49.97 27.03,0 50.49,22.44 50.49,49.97 l 0,57.63 z m -50.49,-142.79 c -12.74,0 -31.61,6.64 -46.4,22.44 -4.08,4.08 -8.67,2.55 -8.67,-3.57 l 0,-13.77 c 0,-3.57 -1.53,-5.1 -5.1,-5.1 l -24.98,0 c -3.58,0 -5.11,1.53 -5.11,5.1 l 0,311.07 c 0,3.57 1.53,5.1 5.11,5.1 l 30.08,0 c 3.57,0 5.1,-1.53 5.1,-5.1 l 0,-106.58 c 0,-5.6 5.1,-7.65 8.66,-3.57 13.77,15.31 31.63,21.42 46.41,21.42 47.43,0 85.67,-34.68 85.67,-84.65 l 0,-57.63 c 0,-49.97 -35.69,-85.16 -90.77,-85.16" /><path
         id="path36"
         style="fill:#231f20;fill-opacity:1;fill-rule:nonzero;stroke:none"
         d="m 5898.49,1207.84 c 0,3.56 -1.54,5.1 -5.1,5.1 l -62.73,0 c -14.79,0 -26.52,-11.73 -26.52,-26.52 l 0,-8.16 c 0,-14.28 11.73,-26.52 26.52,-26.52 l 19.89,0 c 21.93,0 41.81,19.89 47.94,40.29 l 0,15.81 z m 35.18,-91.29 -24.48,0 c -3.56,0 -5.1,1.53 -5.1,5.1 l 0,14.28 c 0,5.61 -5.1,8.16 -9.18,4.08 -14.78,-14.79 -32.63,-23.46 -44.36,-23.46 l -19.89,0 c -36.71,0 -66.29,24.48 -66.29,61.71 l 0,3.06 c 0,37.23 29.58,61.19 66.29,61.19 l 62.73,0 c 3.56,0 5.1,1.53 5.1,5.1 l 0,17.34 c 0,27.54 -22.44,48.95 -50.49,48.95 -16.83,0 -33.65,-8.66 -44.87,-28.04 -1.54,-2.55 -4.09,-3.57 -7.14,-2.04 l -26.01,13.77 c -3.07,1.53 -4.08,4.08 -2.04,7.13 5.61,9.18 12.24,17.85 20.91,24.48 14.28,11.73 33.65,19.38 59.15,19.38 55.08,0 90.77,-33.14 90.77,-83.63 l 0,-143.3 c 0,-3.57 -1.53,-5.1 -5.1,-5.1" /><path
         id="path38"
         style="fill:#231f20;fill-opacity:1;fill-rule:nonzero;stroke:none"
         d="m 6038.74,1116.55 -30.09,0 c -3.57,0 -5.1,1.53 -5.1,5.1 l 0,311.07 c 0,3.57 1.53,5.1 5.1,5.1 l 30.09,0 c 3.57,0 5.1,-1.53 5.1,-5.1 l 0,-311.07 c 0,-3.57 -1.53,-5.1 -5.1,-5.1" /><path
         id="path40"
         style="fill:#231f20;fill-opacity:1;fill-rule:nonzero;stroke:none"
         d="m 6361.55,1212.43 c 0,27.02 -22.44,49.46 -50.48,49.46 l -60.69,0 c -3.57,0 -5.1,-1.53 -5.1,-5.1 l 0,-99.95 c 0,-3.57 1.53,-5.1 5.1,-5.1 l 60.69,0 c 27.53,0 50.48,21.93 50.48,49.97 l 0,10.72 z m 0,140.23 c 0,27.03 -22.44,49.97 -50.48,49.97 l -60.69,0 c -3.57,0 -5.1,-1.52 -5.1,-5.09 l 0,-95.36 c 0,-3.57 1.53,-5.1 5.1,-5.1 l 60.69,0 c 27.53,0 50.48,22.44 50.48,50.48 l 0,5.1 z m -50.48,-236.11 -100.46,0 c -3.58,0 -5.1,1.53 -5.1,5.1 l 0,311.07 c 0,3.57 1.52,5.1 5.1,5.1 l 100.46,0 c 55.07,0 90.26,-35.19 90.26,-90.26 l 0,-5.1 c 0,-19.89 -15.81,-47.42 -34.68,-58.64 -4.59,-2.55 -4.59,-6.12 -0.51,-8.67 17.34,-10.71 35.19,-36.21 35.19,-61.19 l 0,-7.66 c 0,-55.07 -35.19,-89.75 -90.26,-89.75" /><path
         id="path42"
         style="fill:#231f20;fill-opacity:1;fill-rule:nonzero;stroke:none"
         d="m 6496.19,1116.55 -30.09,0 c -3.57,0 -5.1,1.53 -5.1,5.1 l 0,217.24 c 0,3.57 1.53,5.1 5.1,5.1 l 30.09,0 c 3.57,0 5.1,-1.53 5.1,-5.1 l 0,-217.24 c 0,-3.57 -1.53,-5.1 -5.1,-5.1 z m -15.3,275.89 c -14.28,0 -24.99,11.22 -24.99,25.5 0,13.76 11.22,24.98 24.99,24.98 14.28,0 25.5,-10.71 25.5,-24.98 0,-13.77 -11.22,-25.5 -25.5,-25.5" /><path
         id="path44"
         style="fill:#231f20;fill-opacity:1;fill-rule:nonzero;stroke:none"
         d="m 6701.19,1266.99 c 0,26.01 -20.91,47.43 -49.97,47.43 -31.62,0 -49.98,-22.44 -49.98,-49.98 l 0,-70.88 c 0,-26.01 20.91,-47.43 49.98,-47.43 31.61,0 49.97,22.44 49.97,49.98 l 0,70.88 z m -49.97,-155.53 c -54.05,0 -90.26,35.69 -90.26,84.65 l 0,68.33 c 0,48.44 35.18,84.65 90.26,84.65 54.05,0 90.26,-35.7 90.26,-84.65 l 0,-68.33 c 0,-48.45 -35.18,-84.65 -90.26,-84.65" /><path
         id="path46"
         style="fill:#231f20;fill-opacity:1;fill-rule:nonzero;stroke:none"
         d="m 6933.75,1259.34 c 0,27.03 -22.43,49.97 -49.97,49.97 -27.54,0 -49.98,-22.43 -49.98,-49.97 l 0,-57.63 c 0,-27.02 22.44,-49.97 49.98,-49.97 27.02,0 49.97,22.44 49.97,49.97 l 0,57.63 z m 35.19,-142.79 -24.48,0 c -3.57,0 -5.09,1.53 -5.09,5.1 l 0,14.28 c 0,5.61 -5.1,7.65 -9.18,3.57 -15.31,-16.31 -33.67,-22.95 -46.41,-22.95 -55.08,0 -90.26,35.19 -90.26,85.16 l 0,57.63 c 0,49.97 37.22,84.65 85.16,84.65 15.3,0 33.15,-6.11 46.41,-21.93 3.56,-4.59 8.66,-2.54 8.66,3.57 l 0,107.09 c 0,3.57 1.53,5.1 5.11,5.1 l 30.08,0 c 3.57,0 5.1,-1.53 5.1,-5.1 l 0,-311.07 c 0,-3.57 -1.53,-5.1 -5.1,-5.1" /><path
         id="path48"
         style="fill:#231f20;fill-opacity:1;fill-rule:nonzero;stroke:none"
         d="m 7076.56,1116.55 -30.08,0 c -3.58,0 -5.11,1.53 -5.11,5.1 l 0,217.24 c 0,3.57 1.53,5.1 5.11,5.1 l 30.08,0 c 3.57,0 5.1,-1.53 5.1,-5.1 l 0,-217.24 c 0,-3.57 -1.53,-5.1 -5.1,-5.1 z m -15.3,275.89 c -14.28,0 -24.99,11.22 -24.99,25.5 0,13.76 11.22,24.98 24.99,24.98 14.28,0 25.5,-10.71 25.5,-24.98 0,-13.77 -11.22,-25.5 -25.5,-25.5" /><path
         id="path50"
         style="fill:#231f20;fill-opacity:1;fill-rule:nonzero;stroke:none"
         d="m 7240.27,1119.62 c -1.02,-2.05 -2.54,-3.07 -4.59,-3.07 l -24.48,0 c -2.04,0 -3.56,1.02 -4.59,3.07 l -88.22,217.23 c -2.04,4.59 0,7.14 4.59,7.14 l 31.62,0 c 2.04,0 3.56,-1.02 4.59,-3.06 l 57.63,-145.84 c 1.01,-2.55 5.09,-15.3 5.6,-19.89 l 2.04,0 c 0.51,4.59 4.59,17.34 5.61,19.89 l 57.12,145.84 c 1.01,2.04 2.55,3.06 4.59,3.06 l 31.61,0 c 4.59,0 6.63,-2.55 4.59,-7.14 l -87.71,-217.23" /><path
         id="path52"
         style="fill:#231f20;fill-opacity:1;fill-rule:nonzero;stroke:none"
         d="m 7497.3,1266.99 c 0,26.01 -20.91,47.43 -49.98,47.43 -31.62,0 -49.98,-22.44 -49.98,-49.98 l 0,-5.61 c 0,-2.55 2.56,-3.06 5.11,-3.06 l 89.75,0 c 3.57,0 5.1,1.53 5.1,5.1 l 0,6.12 z m 35.18,-41.3 -130.03,0 c -3.57,0 -5.11,-1.54 -5.11,-5.11 l 0,-23.96 c 0,-27.03 22.45,-49.98 49.98,-49.98 17.34,0 34.68,10.2 45.39,29.07 1.53,2.55 4.08,3.57 6.63,2.04 l 27.03,-13.77 c 3.05,-1.53 3.56,-3.57 2.04,-6.63 -4.59,-8.16 -9.69,-16.32 -16.84,-22.95 -13.76,-13.76 -33.65,-22.94 -64.25,-22.94 -55.07,0 -90.26,34.67 -90.26,85.16 l 0,67.82 c 0,48.44 35.19,84.65 90.26,84.65 54.06,0 90.27,-35.7 90.27,-84.65 l 0,-33.65 c 0,-3.58 -1.53,-5.1 -5.11,-5.1" /><path
         id="path54"
         style="fill:#231f20;fill-opacity:1;fill-rule:nonzero;stroke:none"
         d="m 7696.71,1301.67 c -2.55,1.02 -6.12,1.53 -9.18,1.53 -28.05,0 -49.97,-18.87 -49.97,-48.96 l 0,-132.59 c 0,-3.57 -1.53,-5.1 -5.1,-5.1 l -30.09,0 c -3.57,0 -5.1,1.53 -5.1,5.1 l 0,217.24 c 0,3.57 1.53,5.1 5.1,5.1 l 24.98,0 c 3.58,0 5.11,-1.53 5.11,-5.1 l 0,-20.91 c 0,-5.6 5.1,-8.15 8.66,-3.56 13.27,18.87 30.6,29.57 46.41,29.57 l 11.22,0 c 3.57,0 4.59,-2.04 4.59,-5.61 l 0,-32.12 c 0,-4.08 -2.55,-6.12 -6.63,-4.59" /><path
         id="path56"
         style="fill:#231f20;fill-opacity:1;fill-rule:nonzero;stroke:none"
         d="m 7819.61,1111.46 -15.3,0 c -28.56,0 -47.42,8.16 -60.69,19.88 -8.66,7.14 -14.78,16.32 -19.37,24.99 -1.53,3.06 -0.51,5.1 2.55,6.63 l 24.48,12.24 c 3.06,1.53 5.1,0.51 6.62,-2.04 9.18,-16.83 27.54,-28.56 46.41,-28.56 l 15.3,0 c 28.55,0 42.83,16.32 42.83,35.19 0,24.99 -33.14,28.56 -68.84,35.69 -33.66,6.64 -69.86,21.42 -69.86,64.26 0,46.4 34.68,69.35 80.57,69.35 l 15.3,0 c 26.51,0 45.38,-7.14 58.64,-17.85 9.69,-7.64 16.32,-16.82 21.42,-26 1.53,-3.06 0.51,-5.61 -2.55,-7.14 l -24.47,-12.24 c -2.55,-1.53 -5.11,-0.51 -6.63,2.04 -10.21,16.82 -26.53,28.05 -46.41,28.05 l -15.3,0 c -29.57,0 -41.3,-14.28 -41.3,-31.11 0,-28.05 33.14,-30.6 67.82,-37.74 38.75,-8.16 71.39,-20.9 71.39,-62.21 0,-40.29 -28.05,-73.43 -82.61,-73.43" /><path
         id="path58"
         style="fill:#231f20;fill-opacity:1;fill-rule:nonzero;stroke:none"
         d="m 7990.98,1116.55 -30.09,0 c -3.57,0 -5.11,1.53 -5.11,5.1 l 0,217.24 c 0,3.57 1.54,5.1 5.11,5.1 l 30.09,0 c 3.56,0 5.09,-1.53 5.09,-5.1 l 0,-217.24 c 0,-3.57 -1.53,-5.1 -5.09,-5.1 z m -15.31,275.89 c -14.27,0 -24.99,11.22 -24.99,25.5 0,13.76 11.22,24.98 24.99,24.98 14.28,0 25.5,-10.71 25.5,-24.98 0,-13.77 -11.22,-25.5 -25.5,-25.5" /><path
         id="path60"
         style="fill:#231f20;fill-opacity:1;fill-rule:nonzero;stroke:none"
         d="m 8150.6,1111.96 c -20.91,2.05 -38.26,9.18 -51.51,19.38 -18.86,15.3 -29.58,37.74 -29.58,65.28 l 0,107.59 c 0,3.58 -1.53,5.1 -5.1,5.1 l -28.55,0 c -3.57,0 -5.11,1.54 -5.11,5.11 l 0,13.77 58.14,61.19 c 0.51,0.51 2.55,1.53 3.57,1.53 l 12.24,0 c 3.57,0 5.1,-1.53 5.1,-5.1 l 0,-36.72 c 0,-3.57 1.53,-5.1 5.1,-5.1 l 36.2,0 c 3.58,0 5.1,-1.53 5.1,-5.1 l 0,-24.47 c 0,-3.57 -1.52,-5.11 -5.1,-5.11 l -36.2,0 c -3.57,0 -5.1,-1.52 -5.1,-5.1 l 0,-107.59 c 0,-23.46 16.31,-43.86 42.32,-48.96 2.56,-0.51 4.08,-2.04 4.08,-5.1 l 0,-25.5 c 0,-3.57 -2.04,-5.6 -5.6,-5.1" /><path
         id="path62"
         style="fill:#231f20;fill-opacity:1;fill-rule:nonzero;stroke:none"
         d="m 8287.28,996.715 c -29.58,0 -49.47,9.175 -63.74,22.435 -7.14,7.15 -12.76,14.79 -17.35,22.95 -1.52,3.06 -1.01,5.61 2.04,7.14 l 27.03,13.26 c 3.06,1.53 5.1,0.51 6.64,-2.04 10.19,-18.36 28.04,-28.56 45.38,-28.56 27.54,0 50.48,21.93 50.48,49.98 l 0,51.5 c 0,5.61 -5.61,8.16 -9.18,3.58 -11.22,-13.77 -26,-20.41 -41.3,-20.41 -55.08,0 -90.27,35.19 -90.27,85.16 l 0,137.18 c 0,3.57 1.54,5.1 5.11,5.1 l 30.08,0 c 3.57,0 5.11,-1.53 5.11,-5.1 l 0,-137.18 c 0,-27.02 22.43,-49.97 49.97,-49.97 31.1,0 50.48,26.01 50.48,49.97 l 0,137.18 c 0,3.57 1.53,5.1 5.1,5.1 l 29.58,0 c 3.57,0 5.1,-1.53 5.1,-5.1 l 0,-251.4 c 0,-52.02 -30.09,-90.775 -90.26,-90.775" /><path
         id="path64"
         style="fill:#231f20;fill-opacity:1;fill-rule:nonzero;stroke:none"
         d="m 4977.96,504.551 -29.58,0 c -3.57,0 -5.1,1.527 -5.1,5.097 l 0,311.071 c 0,3.57 1.53,5.105 5.1,5.105 l 29.58,0 c 3.56,0 5.1,-1.535 5.1,-5.105 l 0,-311.071 c 0,-3.57 -1.54,-5.097 -5.1,-5.097" /><path
         id="path66"
         style="fill:#231f20;fill-opacity:1;fill-rule:nonzero;stroke:none"
         d="m 5231.41,504.551 -30.09,0 c -3.58,0 -5.1,1.527 -5.1,5.097 l 0,137.692 c 0,27.031 -22.95,49.969 -50.49,49.969 -27.54,0 -49.97,-22.43 -49.97,-49.969 l 0,-137.692 c 0,-3.57 -1.53,-5.097 -5.1,-5.097 l -30.08,0 c -3.58,0 -5.11,1.527 -5.11,5.097 l 0,217.243 c 0,3.57 1.53,5.097 5.11,5.097 l 24.98,0 c 3.57,0 5.1,-1.527 5.1,-5.097 l 0,-13.262 c 0,-5.609 5.1,-8.16 8.67,-3.57 13.77,16.32 30.59,21.929 46.4,21.929 55.08,0 90.77,-34.679 90.77,-84.648 l 0,-137.692 c 0,-3.57 -1.53,-5.097 -5.09,-5.097" /><path
         id="path68"
         style="fill:#231f20;fill-opacity:1;fill-rule:nonzero;stroke:none"
         d="m 5413.99,798.793 c -1.02,-2.551 -2.54,-3.57 -5.09,-3.57 -4.59,0.511 -7.14,0.511 -10.72,0.511 -27.53,0 -49.97,-21.929 -49.97,-49.972 l 0,-32.133 c 0,-3.57 1.53,-5.098 5.1,-5.098 l 36.72,0 c 3.56,0 5.1,-1.531 5.1,-5.09 l 0,-24.48 c 0,-3.57 -1.54,-5.102 -5.1,-5.102 l -36.72,0 c -3.57,0 -5.1,-1.531 -5.1,-5.097 l 0,-159.114 c 0,-3.57 -1.53,-5.097 -5.1,-5.097 l -29.57,0 c -3.58,0 -5.11,1.527 -5.11,5.097 l 0,159.114 c 0,3.566 -1.53,5.097 -5.1,5.097 l -13.25,0 c -3.58,0 -5.11,1.532 -5.11,5.102 l 0,24.48 c 0,3.559 1.53,5.09 5.11,5.09 l 13.25,0 c 3.57,0 5.1,1.528 5.1,5.098 l 0,27.031 c 0,49.973 39.78,90.262 89.75,90.262 6.64,0 12.24,-0.508 19.9,-1.024 4.07,-0.507 5.6,-2.546 4.07,-6.628 l -8.16,-24.477" /><path
         id="path70"
         style="fill:#231f20;fill-opacity:1;fill-rule:nonzero;stroke:none"
         d="m 5566.98,654.988 c 0,26 -20.91,47.422 -49.97,47.422 -31.62,0 -49.98,-22.441 -49.98,-49.969 l 0,-70.882 c 0,-26.008 20.91,-47.43 49.98,-47.43 31.61,0 49.97,22.441 49.97,49.973 l 0,70.886 z m -49.97,-155.527 c -54.05,0 -90.26,35.687 -90.26,84.641 l 0,68.339 c 0,48.438 35.18,84.649 90.26,84.649 54.06,0 90.27,-35.699 90.27,-84.649 l 0,-68.339 c 0,-48.442 -35.2,-84.641 -90.27,-84.641" /><path
         id="path72"
         style="fill:#231f20;fill-opacity:1;fill-rule:nonzero;stroke:none"
         d="m 5766.4,689.672 c -2.55,1.019 -6.13,1.519 -9.18,1.519 -28.05,0 -49.97,-18.863 -49.97,-48.953 l 0,-132.59 c 0,-3.57 -1.54,-5.097 -5.1,-5.097 l -30.09,0 c -3.57,0 -5.11,1.527 -5.11,5.097 l 0,217.243 c 0,3.57 1.54,5.097 5.11,5.097 l 24.98,0 c 3.58,0 5.11,-1.527 5.11,-5.097 l 0,-20.911 c 0,-5.609 5.1,-8.16 8.66,-3.57 13.26,18.871 30.6,29.578 46.41,29.578 l 11.22,0 c 3.56,0 4.59,-2.039 4.59,-5.609 l 0,-32.117 c 0,-4.094 -2.55,-6.121 -6.63,-4.59" /><path
         id="path74"
         style="fill:#231f20;fill-opacity:1;fill-rule:nonzero;stroke:none"
         d="m 6101.94,504.551 -30.08,0 c -3.57,0 -5.1,1.527 -5.1,5.097 l 0,137.692 c 0,27.539 -23.46,49.969 -44.87,49.969 -19.9,0 -44.89,-21.918 -44.89,-49.969 l 0,-137.692 c 0,-3.57 -1.52,-5.097 -5.1,-5.097 l -30.08,0 c -3.57,0 -5.1,1.527 -5.1,5.097 l 0,137.692 c 0,27.539 -23.46,49.969 -44.87,49.969 -20.4,0 -44.88,-21.918 -44.88,-49.969 l 0,-137.692 c 0,-3.57 -1.53,-5.097 -5.09,-5.097 l -30.09,0 c -3.58,0 -5.11,1.527 -5.11,5.097 l 0,217.243 c 0,3.57 1.53,5.097 5.11,5.097 l 24.98,0 c 3.57,0 5.11,-1.527 5.11,-5.097 l 0,-13.262 c 0,-5.609 4.07,-8.16 8.15,-4.078 14.28,15.808 31.62,22.437 46.91,22.437 18.36,0 41.31,-7.648 56.1,-26.519 2.55,-3.571 5.61,-3.059 8.16,0 16.32,18.359 37.74,26.519 60.69,26.519 48.44,0 85.15,-34.679 85.15,-84.648 l 0,-137.692 c 0,-3.57 -1.52,-5.097 -5.1,-5.097" /><path
         id="path76"
         style="fill:#231f20;fill-opacity:1;fill-rule:nonzero;stroke:none"
         d="m 6293.72,595.828 c 0,3.57 -1.53,5.113 -5.1,5.113 l -62.72,0 c -14.8,0 -26.52,-11.73 -26.52,-26.519 l 0,-8.16 c 0,-14.282 11.72,-26.524 26.52,-26.524 l 19.88,0 c 21.94,0 41.82,19.891 47.94,40.293 l 0,15.797 z m 35.19,-91.277 -24.49,0 c -3.56,0 -5.09,1.527 -5.09,5.097 l 0,14.282 c 0,5.609 -5.1,8.16 -9.18,4.082 -14.79,-14.793 -32.64,-23.461 -44.37,-23.461 l -19.88,0 c -36.72,0 -66.3,24.48 -66.3,61.711 l 0,3.058 c 0,37.231 29.58,61.192 66.3,61.192 l 62.72,0 c 3.57,0 5.1,1.527 5.1,5.097 l 0,17.34 c 0,27.539 -22.44,48.949 -50.49,48.949 -16.82,0 -33.65,-8.668 -44.87,-28.039 -1.53,-2.55 -4.08,-3.57 -7.14,-2.039 l -26,13.758 c -3.07,1.543 -4.09,4.094 -2.05,7.141 5.61,9.179 12.24,17.851 20.91,24.48 14.28,11.731 33.65,19.379 59.15,19.379 55.08,0 90.77,-33.137 90.77,-83.629 l 0,-143.301 c 0,-3.57 -1.53,-5.097 -5.09,-5.097" /><path
         id="path78"
         style="fill:#231f20;fill-opacity:1;fill-rule:nonzero;stroke:none"
         d="m 6485.99,499.961 c -20.91,2.039 -38.26,9.18 -51.51,19.379 -18.86,15.301 -29.58,37.738 -29.58,65.281 l 0,107.59 c 0,3.57 -1.53,5.098 -5.09,5.098 l -28.56,0 c -3.57,0 -5.11,1.543 -5.11,5.101 l 0,13.77 58.14,61.195 c 0.52,0.508 2.55,1.527 3.57,1.527 l 12.24,0 c 3.57,0 5.1,-1.527 5.1,-5.097 l 0,-36.715 c 0,-3.57 1.53,-5.102 5.1,-5.102 l 36.2,0 c 3.58,0 5.1,-1.527 5.1,-5.097 l 0,-24.481 c 0,-3.558 -1.52,-5.101 -5.1,-5.101 l -36.2,0 c -3.57,0 -5.1,-1.528 -5.1,-5.098 l 0,-107.59 c 0,-23.461 16.31,-43.859 42.32,-48.961 2.56,-0.512 4.08,-2.039 4.08,-5.101 l 0,-25.5 c 0,-3.571 -2.04,-5.598 -5.6,-5.098" /><path
         id="path80"
         style="fill:#231f20;fill-opacity:1;fill-rule:nonzero;stroke:none"
         d="m 6570.15,504.551 -30.09,0 c -3.58,0 -5.11,1.527 -5.11,5.097 l 0,217.243 c 0,3.57 1.53,5.097 5.11,5.097 l 30.09,0 c 3.56,0 5.09,-1.527 5.09,-5.097 l 0,-217.243 c 0,-3.57 -1.53,-5.097 -5.09,-5.097 z m -15.31,275.887 c -14.27,0 -24.99,11.214 -24.99,25.496 0,13.765 11.22,24.988 24.99,24.988 14.28,0 25.5,-10.711 25.5,-24.988 0,-13.77 -11.22,-25.496 -25.5,-25.496" /><path
         id="path82"
         style="fill:#231f20;fill-opacity:1;fill-rule:nonzero;stroke:none"
         d="m 6775.15,654.988 c 0,26 -20.91,47.422 -49.97,47.422 -31.62,0 -49.98,-22.441 -49.98,-49.969 l 0,-70.882 c 0,-26.008 20.9,-47.43 49.98,-47.43 31.61,0 49.97,22.441 49.97,49.973 l 0,70.886 z m -49.97,-155.527 c -54.06,0 -90.27,35.687 -90.27,84.641 l 0,68.339 c 0,48.438 35.19,84.649 90.27,84.649 54.05,0 90.26,-35.699 90.26,-84.649 l 0,-68.339 c 0,-48.442 -35.2,-84.641 -90.26,-84.641" /><path
         id="path84"
         style="fill:#231f20;fill-opacity:1;fill-rule:nonzero;stroke:none"
         d="m 7051.06,504.551 -30.09,0 c -3.58,0 -5.1,1.527 -5.1,5.097 l 0,137.692 c 0,27.031 -22.95,49.969 -50.49,49.969 -27.54,0 -49.97,-22.43 -49.97,-49.969 l 0,-137.692 c 0,-3.57 -1.53,-5.097 -5.1,-5.097 l -30.08,0 c -3.58,0 -5.11,1.527 -5.11,5.097 l 0,217.243 c 0,3.57 1.53,5.097 5.11,5.097 l 24.98,0 c 3.57,0 5.1,-1.527 5.1,-5.097 l 0,-13.262 c 0,-5.609 5.1,-8.16 8.67,-3.57 13.76,16.32 30.59,21.929 46.4,21.929 55.08,0 90.77,-34.679 90.77,-84.648 l 0,-137.692 c 0,-3.57 -1.53,-5.097 -5.09,-5.097" /><path
         id="path86"
         style="fill:#231f20;fill-opacity:1;fill-rule:nonzero;stroke:none"
         d="m 7390.7,790.633 -130.54,0 c -3.58,0 -5.1,-1.528 -5.1,-5.098 l 0,-95.367 c 0,-3.566 1.52,-5.09 5.1,-5.09 l 107.09,0 c 3.56,0 5.09,-1.527 5.09,-5.109 l 0,-24.981 c 0,-3.57 -1.53,-5.097 -5.09,-5.097 l -107.09,0 c -3.58,0 -5.1,-1.532 -5.1,-5.102 l 0,-135.141 c 0,-3.57 -1.53,-5.097 -5.11,-5.097 l -29.57,0 c -3.57,0 -5.1,1.527 -5.1,5.097 l 0,311.071 c 0,3.57 1.53,5.105 5.1,5.105 l 170.32,0 c 3.57,0 5.1,-1.535 5.1,-5.105 l 0,-24.985 c 0,-3.57 -1.53,-5.101 -5.1,-5.101" /><path
         id="path88"
         style="fill:#231f20;fill-opacity:1;fill-rule:nonzero;stroke:none"
         d="m 7536.57,595.828 c 0,3.57 -1.53,5.113 -5.09,5.113 l -62.73,0 c -14.79,0 -26.52,-11.73 -26.52,-26.519 l 0,-8.16 c 0,-14.282 11.73,-26.524 26.52,-26.524 l 19.88,0 c 21.94,0 41.82,19.891 47.94,40.293 l 0,15.797 z m 35.19,-91.277 -24.48,0 c -3.57,0 -5.1,1.527 -5.1,5.097 l 0,14.282 c 0,5.609 -5.1,8.16 -9.18,4.082 -14.79,-14.793 -32.64,-23.461 -44.37,-23.461 l -19.88,0 c -36.72,0 -66.3,24.48 -66.3,61.711 l 0,3.058 c 0,37.231 29.58,61.192 66.3,61.192 l 62.73,0 c 3.56,0 5.09,1.527 5.09,5.097 l 0,17.34 c 0,27.539 -22.44,48.949 -50.49,48.949 -16.82,0 -33.65,-8.668 -44.87,-28.039 -1.53,-2.55 -4.08,-3.57 -7.14,-2.039 l -26,13.758 c -3.07,1.543 -4.09,4.094 -2.04,7.141 5.6,9.179 12.23,17.851 20.9,24.48 14.28,11.731 33.66,19.379 59.15,19.379 55.08,0 90.78,-33.137 90.78,-83.629 l 0,-143.301 c 0,-3.57 -1.54,-5.097 -5.1,-5.097" /><path
         id="path90"
         style="fill:#231f20;fill-opacity:1;fill-rule:nonzero;stroke:none"
         d="m 7785.95,519.852 c -13.77,-12.243 -33.15,-20.391 -61.7,-20.391 -55.08,0 -90.27,36.711 -90.27,85.16 l 0,67.82 c 0,48.438 35.19,84.649 90.27,84.649 28.55,0 47.93,-8.16 61.7,-19.891 8.16,-7.14 14.28,-15.301 19.38,-24.48 1.53,-3.047 0.51,-5.598 -2.55,-7.141 l -27.03,-13.758 c -2.55,-1.531 -4.59,-0.511 -6.12,2.039 -10.7,17.852 -28.05,28.551 -45.38,28.551 -31.62,0 -49.98,-22.441 -49.98,-49.969 l 0,-67.82 c 0,-27.543 18.36,-49.98 49.98,-49.98 17.33,0 34.68,10.199 45.38,29.07 1.53,2.551 4.08,3.57 6.63,2.027 l 27.03,-13.758 c 3.06,-1.531 3.57,-3.57 2.04,-6.628 -5.1,-9.18 -11.22,-17.852 -19.38,-25.5" /><path
         id="path92"
         style="fill:#231f20;fill-opacity:1;fill-rule:nonzero;stroke:none"
         d="m 7890.01,504.551 -30.09,0 c -3.57,0 -5.1,1.527 -5.1,5.097 l 0,217.243 c 0,3.57 1.53,5.097 5.1,5.097 l 30.09,0 c 3.56,0 5.1,-1.527 5.1,-5.097 l 0,-217.243 c 0,-3.57 -1.54,-5.097 -5.1,-5.097 z m -15.3,275.887 c -14.28,0 -24.99,11.214 -24.99,25.496 0,13.765 11.22,24.988 24.99,24.988 14.27,0 25.5,-10.711 25.5,-24.988 0,-13.77 -11.23,-25.496 -25.5,-25.496" /><path
         id="path94"
         style="fill:#231f20;fill-opacity:1;fill-rule:nonzero;stroke:none"
         d="m 7997.62,504.551 -30.09,0 c -3.57,0 -5.11,1.527 -5.11,5.097 l 0,311.071 c 0,3.57 1.54,5.105 5.11,5.105 l 30.09,0 c 3.56,0 5.1,-1.535 5.1,-5.105 l 0,-311.071 c 0,-3.57 -1.54,-5.097 -5.1,-5.097" /><path
         id="path96"
         style="fill:#231f20;fill-opacity:1;fill-rule:nonzero;stroke:none"
         d="m 8105.23,504.551 -30.09,0 c -3.58,0 -5.11,1.527 -5.11,5.097 l 0,217.243 c 0,3.57 1.53,5.097 5.11,5.097 l 30.09,0 c 3.56,0 5.09,-1.527 5.09,-5.097 l 0,-217.243 c 0,-3.57 -1.53,-5.097 -5.09,-5.097 z m -15.31,275.887 c -14.27,0 -24.99,11.214 -24.99,25.496 0,13.765 11.22,24.988 24.99,24.988 14.28,0 25.5,-10.711 25.5,-24.988 0,-13.77 -11.22,-25.496 -25.5,-25.496" /><path
         id="path98"
         style="fill:#231f20;fill-opacity:1;fill-rule:nonzero;stroke:none"
         d="m 8264.85,499.961 c -20.9,2.039 -38.25,9.18 -51.5,19.379 -18.87,15.301 -29.58,37.738 -29.58,65.281 l 0,107.59 c 0,3.57 -1.53,5.098 -5.1,5.098 l -28.55,0 c -3.58,0 -5.11,1.543 -5.11,5.101 l 0,13.77 58.14,61.195 c 0.51,0.508 2.54,1.527 3.57,1.527 l 12.24,0 c 3.57,0 5.09,-1.527 5.09,-5.097 l 0,-36.715 c 0,-3.57 1.54,-5.102 5.11,-5.102 l 36.2,0 c 3.58,0 5.1,-1.527 5.1,-5.097 l 0,-24.481 c 0,-3.558 -1.52,-5.101 -5.1,-5.101 l -36.2,0 c -3.57,0 -5.11,-1.528 -5.11,-5.098 l 0,-107.59 c 0,-23.461 16.32,-43.859 42.33,-48.961 2.56,-0.512 4.08,-2.039 4.08,-5.101 l 0,-25.5 c 0,-3.571 -2.04,-5.598 -5.61,-5.098" /><path
         id="path100"
         style="fill:#231f20;fill-opacity:1;fill-rule:nonzero;stroke:none"
         d="m 8401.52,384.711 c -29.58,0 -49.46,9.18 -63.74,22.437 -7.13,7.141 -12.75,14.793 -17.34,22.954 -1.52,3.058 -1.02,5.609 2.04,7.136 l 27.03,13.262 c 3.06,1.531 5.1,0.512 6.63,-2.039 10.2,-18.359 28.05,-28.563 45.38,-28.563 27.54,0 50.49,21.93 50.49,49.981 l 0,51.5 c 0,5.609 -5.61,8.16 -9.18,3.57 -11.22,-13.769 -26,-20.398 -41.31,-20.398 -55.07,0 -90.26,35.187 -90.26,85.16 l 0,137.18 c 0,3.57 1.53,5.097 5.11,5.097 l 30.08,0 c 3.57,0 5.1,-1.527 5.1,-5.097 l 0,-137.18 c 0,-27.02 22.43,-49.973 49.97,-49.973 31.11,0 50.49,26 50.49,49.973 l 0,137.18 c 0,3.57 1.53,5.097 5.1,5.097 l 29.58,0 c 3.56,0 5.1,-1.527 5.1,-5.097 l 0,-251.403 c 0,-52.019 -30.09,-90.777 -90.27,-90.777" /></g></g></svg>