<?xml version="1.0" encoding="UTF-8" standalone="no"?>
<svg xmlns="http://www.w3.org/2000/svg" xmlns:xlink="http://www.w3.org/1999/xlink"
  viewBox="0 0 476.24922 237.20944" height="237.20944" width="476.24921" version="1.1" id="svg2">
  <g id="logo" transform="translate(-1.3637789,1.4287109e-5)" style="fill:#47a138;fill-opacity:0.05;stroke:none">
    <path d="m 96.631234,107.59128 c 0,-42.597997 20.789506,-79.462997 82.647876,-79.462997 0,42.69 -28.08125,79.462997 -82.647876,79.462997" />
    <path d="m 195.74161,219.43703 c 11.58625,0 20.49125,-1.64892 29.6375,-5.01368 0,-33.71244 -20.11125,-57.80269 -55.635,-75.16107 -27.185,-13.63337 -60.64462,-20.691 -91.159751,-20.691 13.389625,-40.189247 3.629875,-90.056747 -9.34625,-117.430497 -14.375875,28.6775 -23.349125,77.8425 -9.545375,117.842127 -27.106875,1.97662 -48.603025,13.78425 -57.6977496,29.354 -0.6870075,1.1875 -2.06298503,3.71875 -1.23974253,4.15137 0.64795003,0.34762 1.69678003,-0.71237 2.34473003,-1.30375 9.7944251,-9.06737 22.7636371,-13.48475 35.2153871,-13.48475 28.77725,0 49.09275,23.88075 63.446751,38.2275 30.8495,30.84613 61.002,43.57371 93.9795,43.50975" />
  </g>
  <use x="0" y="0" xlink:href="#logo" transform="translate(245.87887,-108)" width="100%" height="100%" />
  <use x="0" y="0" xlink:href="#logo" transform="translate(245.87887,129.20944)" width="100%" height="100%" />
</svg>
